<?xml version="1.0" encoding="utf-8"?>

<!-- License Agreement at http://iconmonstr.com/license/ -->

<!DOCTYPE svg PUBLIC "-//W3C//DTD SVG 1.1//EN" "http://www.w3.org/Graphics/SVG/1.1/DTD/svg11.dtd">
<svg version="1.1" xmlns="http://www.w3.org/2000/svg" xmlns:xlink="http://www.w3.org/1999/xlink" x="0px" y="0px"
	 width="512px" height="512px" viewBox="0 0 512 512" enable-background="new 0 0 512 512" xml:space="preserve">
<path id="note-7-icon" d="M355.012,385.187H156.988v-30h198.023V385.187z M354.979,323.771h-197.99v-30h197.99V323.771z
	 M354.979,262.437h-197.99v-30h197.99V262.437z M371.056,114.13c0,10.035-8.135,18.172-18.17,18.172s-18.171-8.137-18.171-18.172
	V68.401c0-10.033,8.136-18.17,18.171-18.17s18.17,8.137,18.17,18.17V114.13z M178.222,68.319c0-10.035-8.136-18.17-18.17-18.17
	c-10.036,0-18.171,8.135-18.171,18.17v45.729c0,10.035,8.135,18.17,18.171,18.17c10.034,0,18.17-8.135,18.17-18.17V68.319z
	 M393.019,94.851v18.615c0,22.131-18.004,40.135-40.133,40.135c-22.13,0-40.134-18.004-40.134-40.135V94.851H200.185v18.533
	c0,22.129-18.004,40.133-40.133,40.133c-22.13,0-40.134-18.004-40.134-40.133V94.851H76.333v367h359.334v-367H393.019z
	 M395.667,421.851H116.333V191.38h279.334V421.851z"/>
</svg>
